# AST/ASF file generated using VICON BodyLanguage
# -----------------------------------------------
:version 1.10
:name VICON
:units
  mass 1.0
  length 0.45
  angle deg
:documentation
   .ast/.asf automatically generated from VICON data using
   VICON BodyBuilder and BodyLanguage model FoxedUp or BRILLIANT.MOD
:root
   order TX TY TZ RX RY RZ
   axis XYZ
   position 0 0 0  
   orientation 0 0 0 
:bonedata
  begin
     id 1 
     name lhipjoint
     direction 0.528046 -0.759594 0.379717 
     length 2.39752 
     axis 0 0 0  XYZ
  end
  begin
     id 2 
     name lfemur
     direction 0.34202 -0.939693 0  
     length 7.31175  
     axis 0 0 20  XYZ
    dof rx ry rz
    limits (-160.0 20.0)
           (-70.0 70.0)
           (-60.0 70.0)
  end
  begin
     id 3 
     name ltibia
     direction 0.34202 -0.939693 0   
     length 7.52482   
     axis 0 0 20   XYZ
    dof rx
    limits (-10.0 170.0)
  end
  begin
     id 4 
     name lfoot
     direction 0.0675379 -0.185559 0.980309   
     length 2.00961   
     axis -90 7.62852e-016 20   XYZ
    dof rx rz
    limits (-45.0 90.0)
           (-70.0 20.0)
  end
  begin
     id 5 
     name ltoes
     direction 1.5352e-011 -4.22286e-011 1   
     length 1.01383   
     axis -90 7.62852e-016 20   XYZ
    dof rx
    limits (-90.0 20.0)
  end
  begin
     id 6 
     name rhipjoint
     direction -0.510274 -0.769251 0.384544   
     length 2.36742  
     axis 0 0 0  XYZ 
  end
  begin
     id 7 
     name rfemur
     direction -0.34202 -0.939693 0   
     length 7.45325   
     axis 0 0 -20   XYZ
    dof rx ry rz
    limits (-160.0 20.0)
           (-70.0 70.0)
           (-70.0 60.0)
  end
  begin
     id 8 
     name rtibia
     direction -0.34202 -0.939693 0   
     length 7.49587   
     axis 0 0 -20   XYZ
    dof rx
    limits (-10.0 170.0)
 end
 begin
     id 9 
     name rfoot
     direction -0.106475 -0.292536 0.950308   
     length 2.20898  
     axis -90 -7.62852e-016 -20   XYZ
    dof rx rz
    limits (-45.0 90.0)
           (-20.0 70.0)
  end
  begin
     id 10 
     name rtoes
     direction -1.53597e-011 -4.22023e-011 1   
     length 1.10065   
     axis -90 -7.62852e-016 -20   XYZ
    dof rx
    limits (-90.0 20.0)
  end
  begin
     id 11 
     name lowerback
     direction 0.0260024 0.998026 -0.0571652   
     length 2.11214   
     axis 0 0 0   XYZ
    dof rx ry rz
    limits (-20.0 45.0)
           (-30.0 30.0)
           (-30.0 30.0)
  end
  begin
     id 12 
     name upperback
     direction 0.0216202 0.999542 -0.0211766   
     length 2.11689   
     axis 0 0 0   XYZ
    dof rx ry rz
    limits (-20.0 45.0)
           (-30.0 30.0)
           (-30.0 30.0)
  end
  begin
     id 13 
     name thorax
     direction 0.00883312 0.999944 0.00589057   
     length 2.11821   
     axis 0 0 0   XYZ
    dof rx ry rz
    limits (-20.0 45.0)
           (-30.0 30.0)
           (-30.0 30.0)
  end
  begin
     id 14 
     name lowerneck
     direction -0.059386 0.994433 0.0870401   
     length 1.81176   
     axis 0 0 0   XYZ
    dof rx ry rz
    limits (-20.0 45.0)
           (-30.0 30.0)
           (-30.0 30.0)
  end
  begin
     id 15 
     name upperneck
     direction 0.0506457 0.97328 -0.223967   
     length 1.82382   
     axis 0 0 0   XYZ
    dof rx ry rz
    limits (-20.0 45.0)
           (-30.0 30.0)
           (-30.0 30.0)
  end
  begin
     id 16
     name head
     direction 0.0205902 0.996147 -0.0852487  
     length 1.84805  
     axis 0 0 0   XYZ
    dof rx ry rz
    limits (-20.0 45.0)
           (-30.0 30.0)
           (-30.0 30.0)
  end
  begin
     id 17 
     name lclavicle
     direction 0.949493 0.303881 -0.0782325  
     length 3.60584  
     axis 0 0 0   XYZ
    dof ry rz
    limits (-20.0 10.0)
           (0.0 20.0)
  end
  begin
     id 18 
     name lhumerus
     direction 1 -4.48965e-011 1.48782e-027   
     length 4.95681   
     axis 180 -30 -90   XYZ
    dof rx ry rz
    limits (-60.0 90.0)
           (-90.0 90.0)
           (-90.0 90.0)
  end
  begin
     id 19
     name lradius
     direction 1 -4.48952e-011 2.06528e-027   
     length 3.40915   
     axis 180 -30 -90   XYZ
    dof rx
    limits (-10.0 170.0)
  end
  begin
     id 20
     name lwrist
     direction 1 -4.48964e-011 1.28021e-027   
     length 1.70457   
     axis -1.61767e-015 90 90   XYZ
    dof ry
    limits (-180.0 0.0)
 end
  begin
     id 21 
     name lhand
     direction 1 -4.49094e-011 2.54887e-027   
     length 0.616403   
     axis -1.63363e-015 90 90   XYZ
    dof rx rz
    limits (-90.0 90.0)
           (-45.0 45.0)
  end
  begin
     id 22 
     name lfingers
     direction 1 -4.49002e-011 5.11407e-027   
     length 0.49696   
     axis -3.26723e-015 90 90   XYZ
    dof rx
    limits (0.0 90.0)
  end
  begin
     id 23
     name lthumb
     direction 0.707107 -6.34998e-011 0.707107   
     length 0.713539   
     axis -90 45 -2.25915e-014   XYZ
    dof rx rz
    limits (-45.0 45.0)
           (-45.0 45.0)
  end
  begin
     id 24 
     name rclavicle
     direction -0.937751 0.334612 -0.0930482   
     length 3.46287  
     axis 0 0 0   XYZ 
    dof ry rz
    limits (-10.0 20.0)
           (-20.0 0.0)
  end
  begin
     id 25 
     name rhumerus
     direction -1 -4.48962e-011 3.59972e-027  
     length 5.352   
     axis 180 30 90   XYZ
    dof rx ry rz
    limits (-90.0 60.0)
           (-90.0 90.0)
           (-90.0 90.0)
  end
  begin
     id 26 
     name rradius
     direction -1 -4.48987e-011 -3.76925e-027   
     length 3.43721   
     axis 180 30 90   XYZ
    dof rx
    limits (-10.0 170.0)
  end
  begin
     id 27 
     name rwrist
     direction -1 -4.48943e-011 1.28112e-027   
     length 1.7186   
     axis -1.61767e-015 -90 -90   XYZ
    dof ry
    limits (-180.0 0.0)
  end
  begin
     id 28
     name rhand
     direction -1 -4.49027e-011 2.55483e-027   
     length 0.72009   
     axis -1.63363e-015 -90 -90   XYZ
    dof rx rz
    limits (-90.0 90.0)
           (-45.0 45.0)
  end
  begin
     id 29
     name rfingers
     direction -1 -4.48827e-011 5.14506e-027   
     length 0.580555   
     axis -3.26723e-015 -90 -90   XYZ
    dof rx
    limits (0.0 90.0)
  end
  begin
     id 30
     name rthumb
     direction -0.707107 -6.34936e-011 0.707107   
     length 0.833564   
     axis -90 -45 2.25915e-014   XYZ
    dof rx rz
    limits (-45.0 45.0)
           (-45.0 45.0)
  end
:hierarchy
  begin
    root lhipjoint rhipjoint lowerback
    lhipjoint lfemur
    lfemur ltibia
    ltibia lfoot
    lfoot ltoes
    rhipjoint rfemur
    rfemur rtibia
    rtibia rfoot
    rfoot rtoes
    lowerback upperback
    upperback thorax
    thorax lowerneck lclavicle rclavicle
    lowerneck upperneck
    upperneck head
    lclavicle lhumerus
    lhumerus lradius
    lradius lwrist
    lwrist lhand lthumb
    lhand lfingers
    rclavicle rhumerus
    rhumerus rradius
    rradius rwrist
    rwrist rhand rthumb
    rhand rfingers
  end

#!OML:ASF H:\Terrain\Patient Classification 1\Terrain2\Thursday\justin.ASF
:FULLY-SPECIFIED
:DEGREES
1
root -2.30224 17.1924 -22.3741 1.11694 -4.07101 -1.69812
lowerback 2.31548 -0.156839 2.00982
upperback -1.26329 -0.100641 1.66593
thorax -2.59621 -0.070316 0.588587
lowerneck -3.75688 -11.8314 -13.7501
upperneck 14.1738 -16.2387 8.7993
head 6.78533 -8.07892 3.62194
rclavicle -1.36882e-014 -4.77083e-015
rhumerus -32.6182 -12.7298 -80.9212
rradius 24.6887
rwrist -7.24245
rhand -22.5715 12.4831
rfingers 7.12502
rthumb 3.85694 -17.4617
lclavicle -1.36882e-014 -4.77083e-015
lhumerus -34.9093 8.8859 85.8728
lradius 22.3017
lwrist -2.5542
lhand -17.4843 22.8956
lfingers 7.12502
lthumb 8.76803 52.6934
rfemur -9.0374 -1.73469 25.9446
rtibia 31.8563
rfoot -21.061 -1.94035
rtoes 13.8967
lfemur -8.50199 0.219575 -16.0307
ltibia 29.4281
lfoot -18.4696 -6.0288
ltoes -2.53571
2
root -2.30566 17.1751 -22.3747 0.897236 -3.85241 -1.94849
lowerback 2.65802 -0.297754 2.23722
upperback -1.16604 -0.266129 1.8724
thorax -2.69022 -0.155163 0.682661
lowerneck -3.97191 -11.8292 -14.0894
upperneck 14.1687 -16.1798 8.83046
head 6.84577 -8.05756 3.67279
rclavicle -1.18929e-014 3.97569e-016
rhumerus -32.5338 -12.6108 -80.7079
rradius 24.5691
rwrist -7.08324
rhand -22.1134 13.091
rfingers 7.12502
rthumb 4.29926 -16.8454
lclavicle -1.18929e-014 3.97569e-016
lhumerus -34.721 9.77473 85.6033
lradius 22.1994
lwrist -4.19484
lhand -16.1817 22.0291
lfingers 7.12502
lthumb 10.0249 51.7704
rfemur -8.8553 -1.939 26.27
rtibia 32.0213
rfoot -21.148 -2.29854
rtoes 12.7731
lfemur -8.37167 0.0789466 -15.7234
ltibia 29.5484
lfoot -18.3546 -6.21629
ltoes -1.78703
3
root -2.31016 17.1708 -22.3787 0.939854 -3.95082 -2.08538
lowerback 2.7889 -0.270638 2.37843
upperback -1.19638 -0.217464 1.92141
thorax -2.79556 -0.133788 0.652602
lowerneck -4.08924 -11.9147 -14.0997
upperneck 14.3307 -16.2766 8.72726
head 6.9219 -8.10691 3.619
rclavicle 1.55301e-014 1.66979e-014
rhumerus -32.5278 -12.5266 -80.6494
rradius 24.5889
rwrist -7.35694
rhand -22.002 12.8619
rfingers 7.12502
rthumb 4.40679 -17.0723
lclavicle 1.55301e-014 1.66979e-014
lhumerus -34.6966 9.80538 85.5325
lradius 22.324
lwrist -4.75494
lhand -15.8214 21.4743
lfingers 7.12502
lthumb 10.3724 51.1985
rfemur -8.92535 -1.8105 26.4387
rtibia 32.0879
rfoot -21.1803 -2.29684
rtoes 13.0654
lfemur -8.42054 0.0969824 -15.5691
ltibia 29.5808
lfoot -18.4396 -6.07791
ltoes -2.9395
4
root -2.31219 17.171 -22.3827 0.971192 -4.111 -2.02503
lowerback 2.80802 -0.211996 2.35861
upperback -1.14766 -0.141942 1.87519
thorax -2.75563 -0.0957316 0.612047
lowerneck -4.21382 -11.9446 -13.9935
upperneck 14.439 -16.3057 8.64723
head 6.9656 -8.11639 3.56553
rclavicle 8.11756e-015 -6.75868e-015
rhumerus -32.4289 -12.8379 -80.5137
rradius 24.4663
rwrist -7.21322
rhand -22.2052 12.9012
rfingers 7.12502
rthumb 4.2106 -17.0369
lclavicle 8.11756e-015 -6.75868e-015
lhumerus -34.5035 9.4871 85.5713
lradius 22.478
lwrist -4.99479
lhand -15.5969 21.3577
lfingers 7.12502
lthumb 10.589 51.0709
rfemur -9.00588 -1.73 26.3595
rtibia 32.1592
rfoot -21.1732 -2.19105
rtoes 13.2815
lfemur -8.43947 0.146574 -15.6522
ltibia 29.6055
lfoot -18.5034 -5.88546
ltoes -3.15537
5
root -2.31641 17.1772 -22.3887 0.960945 -4.27624 -1.78838
lowerback 2.84058 -0.148724 2.09812
upperback -1.01692 -0.0716568 1.82044
thorax -2.63819 -0.0554255 0.697429
lowerneck -4.4483 -11.9684 -13.7728
upperneck 14.4126 -16.2814 8.39388
head 6.9538 -8.10183 3.44403
rclavicle -1.47873e-014 3.57812e-015
rhumerus -32.0645 -13.4058 -80.2728
rradius 24.0486
rwrist -6.83102
rhand -22.6505 12.9498
rfingers 7.12502
rthumb 3.78063 -16.9964
lclavicle -1.47873e-014 3.57812e-015
lhumerus -34.1451 9.00882 85.7661
lradius 22.5753
lwrist -4.76354
lhand -15.3351 21.5953
lfingers 7.12502
lthumb 10.8415 51.2955
rfemur -9.06098 -1.71687 26.1005
rtibia 32.1876
rfoot -21.1165 -2.08519
rtoes 12.9193
lfemur -8.44674 0.354388 -15.9098
ltibia 29.6114
lfoot -18.4946 -5.87343
ltoes -2.01285
6
root -2.31837 17.1858 -22.3942 1.04191 -4.5149 -1.55226
lowerback 2.65879 -0.475632 1.80562
upperback -0.517903 -0.53055 2.20622
thorax -2.01795 -0.273582 1.27494
lowerneck -6.10667 -11.715 -14.8188
upperneck 14.6662 -15.604 8.43109
head 7.33503 -7.77257 3.58467
rclavicle -5.86415e-015 3.18055e-015
rhumerus -30.5523 -12.087 -80.2825
rradius 23.707
rwrist -7.00062
rhand -22.6467 12.9056
rfingers 7.12502
rthumb 3.78428 -17.0406
lclavicle -5.86415e-015 3.18055e-015
lhumerus -33.1981 10.393 86.18
lradius 22.6206
lwrist -4.27467
lhand -15.652 21.4242
lfingers 7.12502
lthumb 10.5359 51.1402
rfemur -9.25136 -1.77676 25.8249
rtibia 32.2281
rfoot -21.0933 -1.8709
rtoes 12.4148
lfemur -8.5388 0.579378 -16.2052
ltibia 29.5827
lfoot -18.5915 -5.78525
ltoes -0.674961
7
root -2.32086 17.1868 -22.3952 1.0217 -4.64173 -1.48267
lowerback 2.65215 -0.570988 1.66076
upperback -0.59199 -0.658169 2.34329
thorax -2.08603 -0.335055 1.50332
lowerneck -5.44921 -11.3959 -15.1146
upperneck 14.3255 -15.2118 8.49713
head 7.09324 -7.61591 3.74421
rclavicle -4.5969e-015 9.54166e-015
rhumerus -30.8868 -11.231 -80.2599
rradius 24.0642
rwrist -7.24839
rhand -22.7311 12.6822
rfingers 7.12502
rthumb 3.70282 -17.2654
lclavicle -4.5969e-015 9.54166e-015
lhumerus -33.4972 10.4153 86.3714
lradius 22.8773
lwrist -3.6115
lhand -15.8901 21.3631
lfingers 7.12502
lthumb 10.3062 51.0906
rfemur -9.28914 -1.7887 25.7507
rtibia 32.2909
rfoot -21.1199 -1.82667
rtoes 12.0946
lfemur -8.47008 0.6403 -16.3022
ltibia 29.5214
lfoot -18.7807 -5.78397
ltoes 0.500305
8
root -2.32758 17.1878 -22.3951 0.983003 -4.77408 -1.30607
lowerback 2.7464 -0.623161 1.40199
upperback -0.633025 -0.732222 2.36841
thorax -2.1765 -0.368743 1.6793
lowerneck -5.18069 -11.2362 -15.0861
upperneck 14.094 -15.0013 8.39859
head 6.93643 -7.52758 3.75529
rclavicle -6.39838e-015 1.11319e-014
rhumerus -31.0317 -10.9442 -80.2569
rradius 24.0687
rwrist -7.18974
rhand -23.0753 12.5258
rfingers 7.12502
rthumb 3.37034 -17.4273
lclavicle -6.39838e-015 1.11319e-014
lhumerus -33.6683 10.3229 86.4416
lradius 23.1656
lwrist -3.07439
lhand -16.3777 21.5309
lfingers 7.12502
lthumb 9.83575 51.2811
rfemur -9.29136 -1.55977 25.592
rtibia 32.3699
rfoot -21.1076 -1.89537
rtoes 12.3835
lfemur -8.3766 0.750756 -16.4754
ltibia 29.4485
lfoot -18.8386 -5.83112
ltoes 0.636365
9
root -2.33294 17.1876 -22.3965 1.02589 -4.94822 -1.11216
lowerback 2.77299 -0.605404 1.13798
upperback -0.661273 -0.716737 2.35755
thorax -2.21757 -0.357609 1.81621
lowerneck -4.93735 -11.0906 -15.0114
upperneck 13.822 -14.8266 8.40459
head 6.78021 -7.44577 3.78712
rclavicle 7.72775e-015 7.95139e-016
rhumerus -31.0152 -10.8662 -80.2096
rradius 23.9021
rwrist -7.19049
rhand -23.1883 12.5447
rfingers 7.12502
rthumb 3.26129 -17.4101
lclavicle 7.72775e-015 7.95139e-016
lhumerus -33.5907 10.3704 86.4176
lradius 23.2074
lwrist -2.93651
lhand -17.1756 21.4128
lfingers 7.12502
lthumb 9.06593 51.198
rfemur -9.40572 -1.39412 25.3884
rtibia 32.4475
rfoot -21.0992 -1.82159
rtoes 12.9666
lfemur -8.37998 0.796885 -16.6822
ltibia 29.3998
lfoot -18.7782 -5.68043
ltoes 0.0421523
10
root -2.33641 17.1849 -22.3988 1.02151 -4.99801 -1.09306
lowerback 2.77916 -0.621326 1.09353
upperback -0.718114 -0.737565 2.37559
thorax -2.27822 -0.367169 1.86142
lowerneck -4.42086 -10.9668 -14.961
upperneck 13.6091 -14.7106 8.32675
head 6.59971 -7.40713 3.80237
rclavicle 1.41634e-015 -7.15625e-015
rhumerus -31.2059 -10.4594 -80.2714
rradius 23.9847
rwrist -7.52233
rhand -23.3198 12.544
rfingers 7.12502
rthumb 3.13429 -17.4127
lclavicle 1.41634e-015 -7.15625e-015
lhumerus -33.7048 10.3069 86.3622
lradius 23.3731
lwrist -2.99158
lhand -17.0613 21.495
lfingers 7.12502
lthumb 9.17622 51.2753
rfemur -9.44075 -1.42709 25.3633
rtibia 32.5043
rfoot -21.1742 -1.6971
rtoes 13.32
lfemur -8.34569 0.681046 -16.7048
ltibia 29.3756
lfoot -18.7629 -5.47881
ltoes -0.276628
11
root -2.34225 17.1834 -22.3996 1.02149 -4.77297 -1.20514
lowerback 2.7118 -0.747701 1.35809
upperback -0.528584 -0.903879 2.36828
thorax -2.04582 -0.453903 1.70976
lowerneck -4.97991 -11.0101 -14.9544
upperneck 13.8584 -14.6888 8.23586
head 6.7653 -7.38632 3.73972
rclavicle 2.2649e-014 -1.35174e-014
rhumerus -30.715 -10.7013 -80.2688
rradius 23.5655
rwrist -7.28777
rhand -23.367 13.0101
rfingers 7.12502
rthumb 3.0887 -16.9472
lclavicle 2.2649e-014 -1.35174e-014
lhumerus -33.3646 10.0674 86.3845
lradius 23.6783
lwrist -2.74404
lhand -16.6733 21.8439
lfingers 7.12502
lthumb 9.55055 51.6075
rfemur -9.42865 -1.50608 25.5306
rtibia 32.5492
rfoot -21.2662 -1.77802
rtoes 13.4776
lfemur -8.36574 0.554852 -16.5462
ltibia 29.3752
lfoot -18.8189 -5.51865
ltoes -0.608631
12
root -2.35574 17.1795 -22.3945 1.00763 -4.24161 -1.31717
lowerback 2.76286 -0.922309 1.50192
upperback -0.502796 -1.13085 2.36719
thorax -2.04643 -0.568893 1.6387
lowerneck -5.48015 -11.0431 -14.8332
upperneck 14.3509 -14.6797 8.07441
head 6.9869 -7.3746 3.63654
rclavicle 8.51047e-015 1.19271e-014
rhumerus -30.5522 -11.3861 -80.0413
rradius 23.1081
rwrist -6.72502
rhand -23.3868 13.2819
rfingers 7.12502
rthumb 3.0696 -16.6758
lclavicle 8.51047e-015 1.19271e-014
lhumerus -33.2452 9.47788 86.3702
lradius 23.8013
lwrist -2.35505
lhand -16.6437 22.0406
lfingers 7.12502
lthumb 9.57909 51.8028
rfemur -9.3503 -1.67935 25.768
rtibia 32.5516
rfoot -21.3492 -2.17392
rtoes 13.1207
lfemur -8.41784 0.362739 -16.3209
ltibia 29.4167
lfoot -18.8023 -5.88828
ltoes -0.505223
